<?xml version="1.0" encoding="UTF-8" standalone="no"?>
<!-- Created with Inkscape (http://www.inkscape.org/) -->

<svg
   xmlns:dc="http://purl.org/dc/elements/1.1/"
   xmlns:cc="http://creativecommons.org/ns#"
   xmlns:rdf="http://www.w3.org/1999/02/22-rdf-syntax-ns#"
   xmlns:svg="http://www.w3.org/2000/svg"
   xmlns="http://www.w3.org/2000/svg"
   xmlns:sodipodi="http://sodipodi.sourceforge.net/DTD/sodipodi-0.dtd"
   xmlns:inkscape="http://www.inkscape.org/namespaces/inkscape"
   id="svg4213"
   version="1.1"
   inkscape:version="0.91 r13725"
   width="143.97934"
   height="48.875469"
   viewBox="0 0 143.97933 48.875474"
   sodipodi:docname="logo.svg">
  <metadata
     id="metadata4219">
    <rdf:RDF>
      <cc:Work
         rdf:about="">
        <dc:format>image/svg+xml</dc:format>
        <dc:type
           rdf:resource="http://purl.org/dc/dcmitype/StillImage" />
        <dc:title></dc:title>
      </cc:Work>
    </rdf:RDF>
  </metadata>
  <defs
     id="defs4217" />
  <sodipodi:namedview
     pagecolor="#ffffff"
     bordercolor="#666666"
     borderopacity="1"
     objecttolerance="10"
     gridtolerance="10"
     guidetolerance="10"
     inkscape:pageopacity="0"
     inkscape:pageshadow="2"
     inkscape:window-width="2074"
     inkscape:window-height="1282"
     id="namedview4215"
     showgrid="false"
     showborder="true"
     inkscape:zoom="5.6568542"
     inkscape:cx="68.832108"
     inkscape:cy="52.152478"
     inkscape:window-x="469"
     inkscape:window-y="31"
     inkscape:window-maximized="0"
     inkscape:current-layer="svg4213"
     fit-margin-top="0"
     fit-margin-left="0"
     fit-margin-right="0"
     fit-margin-bottom="0" />
  <path
     style="fill:#999999"
     d="m 102.41737,30.697618 c -0.16242,0.0062 -0.20814,0.05863 -0.14918,0.15401 0.0697,0.112833 1.19384,0.626867 2.49802,1.142306 1.82795,0.722452 2.26688,0.961849 1.91561,1.044774 -0.37495,0.08851 -0.16631,0.239757 1.17742,0.853505 0.89819,0.410249 2.61223,1.216338 3.80898,1.791333 1.71645,0.824696 2.3014,1.020354 2.77022,0.926594 0.7307,-0.146136 0.78435,0.169515 0.0832,0.489008 -0.68512,0.312162 -0.44116,0.511662 0.30682,0.250909 0.66416,-0.231521 0.81409,0.02987 0.20434,0.356196 -0.68954,0.369024 -0.45568,0.642719 0.43735,0.511788 0.8262,-0.121137 0.8262,-0.121147 0.243,0.38301 -0.5832,0.504153 -0.5832,0.504114 0.28064,0.379527 0.83479,-0.120392 0.85284,-0.112299 0.53466,0.239283 -0.47669,0.526731 -0.40676,0.688932 0.24126,0.559328 0.47585,-0.09517 0.56598,-0.05303 0.54286,0.253835 -0.0152,0.202367 -0.091,0.328769 -0.16832,0.280969 -0.0773,-0.04779 -0.203,0.01419 -0.27931,0.137639 -0.10098,0.163416 0.0671,0.186549 0.61834,0.08519 0.61295,-0.112726 0.71082,-0.09195 0.51408,0.109159 -0.44036,0.450152 -0.29218,0.772873 0.29165,0.635263 0.43958,-0.103601 0.49138,-0.08004 0.29157,0.132417 -0.38045,0.404539 -0.28452,0.667222 0.11248,0.307942 0.4771,-0.431773 0.67565,-0.406675 0.42897,0.05426 -0.24999,0.467101 -0.25813,0.790385 -0.0199,0.790385 0.0997,0 0.24919,-0.196785 0.33216,-0.437355 0.13586,-0.393987 0.16188,-0.369868 0.2623,0.243 0.0636,0.388223 0.21317,0.659515 0.34828,0.631788 0.13529,-0.02777 0.23676,0.157061 0.23676,0.43126 0,0.327596 0.0849,0.447337 0.26758,0.377236 0.17041,-0.06539 0.31378,0.08113 0.39465,0.403337 0.0698,0.278304 0.31106,0.574103 0.53609,0.657335 0.59697,0.220839 -0.14434,0.756877 -2.36294,1.708673 -1.94452,0.834212 -2.0459,0.940578 -1.07096,1.12348 0.602,0.112932 0.98268,0.498891 0.4921,0.498891 -0.36136,0 0.0301,0.561055 0.4477,0.641672 0.23153,0.0447 0.55218,0.03859 0.71256,-0.01361 0.16038,-0.0522 0.51034,-0.139106 0.77764,-0.193165 0.2673,-0.05406 0.60884,-0.195916 0.75897,-0.31522 0.16664,-0.132386 1.26502,-0.223829 2.81879,-0.234695 3.29388,-0.02307 6.59546,-1.101021 7.41023,-2.419399 0.0441,-0.07132 0.21523,-0.04365 0.39907,0.02151 0.18384,0.06516 0.31869,-0.07874 0.47524,0.226074 0.21497,0.178391 0.13303,-0.451851 0.10996,-0.674419 -0.13685,-0.181116 -0.2892,-0.08289 -0.26539,-0.318858 0.0469,-0.464668 -0.57804,-0.788661 -0.88332,-0.8085 -0.12583,-0.0034 -0.059,-0.134664 0.14855,-0.291645 0.43197,-0.326735 0.77258,-0.378815 0.59469,-0.09097 -0.16272,0.26327 -0.0123,0.245301 0.80406,-0.09579 0.63061,-0.263483 0.68341,-0.261468 0.57474,0.02167 -0.0859,0.224021 -0.0369,0.278323 0.17419,0.192926 0.1616,-0.06536 0.42498,-0.171931 0.58536,-0.236828 0.16038,-0.0649 0.29165,-0.01811 0.29165,0.104018 0,0.161799 0.10546,0.165625 0.38879,0.014 0.21384,-0.114443 0.38883,-0.139401 0.38886,-0.05545 10e-6,0.08395 0.63419,0.172086 1.40935,0.195854 4.10726,0.125952 5.61583,0.210444 5.72607,0.320679 0.17654,0.176538 1.27628,0.144475 1.57657,-0.04596 0.26996,-0.171185 -2.76485,-1.524177 -4.43529,-1.977382 -1.97192,-0.534995 -7.09291,0.130738 -9.17451,1.192696 -0.62491,0.318794 -0.98597,0.38132 -1.59968,0.277014 -0.43594,-0.0741 -1.07519,-0.180472 -1.42067,-0.236358 -1.06739,-0.172679 -4.09296,-3.29267 -5.90548,-6.089869 -0.73307,-1.131334 0.16753,-0.765013 -9.79601,-3.984741 -5.56366,-1.7979 -8.33652,-2.602868 -9.13656,-2.631394 -0.028,-9.9e-4 -0.0536,-0.0012 -0.0768,-1.62e-4 z"
     id="path4335"
     inkscape:connector-curvature="0" />
  <path
     style="fill:#cccccc"
     d="m 70.840056,1.6642218e-4 c 0.08088,-0.006000002 0.235896,0.14995999782 0.47548,0.51299999782 0.261336,0.396 1.087976,2.09698078 1.837016,3.77997988 1.786824,4.014848 2.4734,4.029308 0.904184,0.019 -0.66524,-1.7001391 -0.808224,-3.3001999 -0.242184,-2.7104591 0.35348,0.36828 1.659744,4.2647771 1.94824,5.8114371 0.260024,1.394 0.59444,1.06311 0.59444,-0.58809 0,-2.387488 0.412763,-1.35594 0.835543,2.08809 0.28148,2.2930097 0.63972,3.8642297 1.35156,5.9280197 0.9686,2.808116 0.96866,2.808176 0.80734,6.96006 -0.2613,6.724356 0.11958,7.937884 2.71816,8.660356 0.95896,0.266612 2.0071,0.376996 2.40028,1.455176 0.24016,0.240148 0.36398,0.15668 0.47276,0.343648 0.108775,0.186976 0.138435,0.337848 0.128515,0.443852 -0.0445,0.475436 0.0816,0.300636 -0.277935,0.1082 -0.23114,-0.123712 -0.98398,-0.104204 -1.6285,0.14922 -0.86782,0.341216 -0.95386,0.09921 -1.21016,0.188184 -0.25632,0.08898 -0.0486,0.407444 -0.0498,0.499804 -0.003,0.251516 2.84132,2.267576 3.572252,2.546488 0.87618,0.334332 1.59912,1.080048 2.7501,2.836908 1.12746,1.720976 1.92088,2.531844 2.6499,2.708204 0.44414,0.107448 0.44076,0.11828 -0.0458,0.144048 -0.28922,0.01532 -0.59264,-0.08021 -0.67422,-0.212212 -0.0816,-0.132 -0.25376,-0.24004 -0.38262,-0.24004 -0.41966,0 0.24522,0.935096 0.92862,1.30596 0.561,0.304452 0.5848,0.356216 0.16738,0.364452 -0.26764,0.0053 -0.74398,-0.170652 -1.0586,-0.391016 -0.56144,-0.393252 -0.56868,-0.389944 -0.39014,0.17998 0.10006,0.319364 0.19458,0.7617 0.21006,0.983008 0.0154,0.221308 0.10172,0.35692 0.1916,0.301368 0.0899,-0.05555 0.22068,0.04817 0.29064,0.230468 0.21974,0.572656 -0.75078,0.149956 -1.38428,-0.602928 -0.82998,-0.98636 -0.94032,-0.876048 -0.76846,0.768164 0.18148,1.736364 -0.14466,1.82012 -0.93956,0.241308 -0.56546,-1.123112 -0.81382,-0.869328 -0.82138,0.839256 -0.002,0.407 -0.0771,0.813804 -0.16728,0.904004 -0.29452,0.29452 -0.58274,-0.236204 -0.77726,-1.431148 C 85.06505,43.95312 85.06503,43.95304 84.767675,44.73304 c -0.40958,1.07438 -1.21044,0.550936 -1.21044,-0.791208 0,-0.193908 -0.22304,-0.348732 -0.50244,-0.348732 -0.30064,0 -0.55294,-0.1928 -0.62804,-0.47998 -0.069,-0.264 -0.23554,-0.48008 -0.37002,-0.48008 -0.28886,0 -1.37948,-1.132316 -1.37948,-1.432224 0,-0.114136 -0.32402,-0.350884 -0.72002,-0.526172 -0.396,-0.175284 -0.72002,-0.411884 -0.72002,-0.525784 0,-0.1139 -0.16604,-0.14342 -0.36904,-0.06552 -0.20606,0.07906 -0.4269,-0.0089 -0.4999,-0.19912 -0.0732,-0.19062 -0.29372,-0.278312 -0.5006,-0.198924 -0.2121,0.08139 -0.46464,-0.02744 -0.59208,-0.25518 -0.12222,-0.218392 -0.37888,-0.397072 -0.57032,-0.397072 -0.191443,0 -0.348043,-0.16196 -0.348043,-0.35996 0,-0.198 -0.204416,-0.35996 -0.454296,-0.35996 -0.24988,0 -0.516504,-0.16206 -0.59248,-0.36006 -0.076,-0.198 -0.30352,-0.35996 -0.505664,-0.35996 -0.202136,0 -0.367576,-0.16206 -0.367576,-0.36006 0,-0.198 -0.14164,-0.35996 -0.314744,-0.35996 -0.534376,0 -1.36152,-0.9305 -1.2004,-1.350388 0.31808,-0.828892 -5.44976,0.91976 -9.89472,2.999804 -1.523976,0.713148 -1.52404,0.713156 -1.279496,0.07187 0.134496,-0.352708 0.1748,-1.10834 0.08956,-1.6792 -0.13684,-0.916296 -0.09664,-1.05314 0.34248,-1.167972 0.27356,-0.07154 0.49736,-0.238116 0.49736,-0.370116 0,-0.132004 -0.200664,-0.187472 -0.445904,-0.12334 -0.60124,0.157228 -1.21472,-0.21834 -1.475,-0.902928 -0.1368,-0.359796 -0.45724,-0.60004 -0.886616,-0.664652 -0.566344,-0.08521 -0.533024,-0.106848 0.211616,-0.137104 6.48536,-0.263828 12.254584,-2.367152 10.337504,-3.768948 -0.20404,-0.149196 -0.394824,-0.664768 -0.424024,-1.145704 -0.0292,-0.48094 -0.171136,-1.016572 -0.315336,-1.190332 -0.1442,-0.173752 -0.199984,-0.553888 -0.12392,-0.844724 0.076,-0.290832 0.0056,-0.688888 -0.15684,-0.884472 -0.16444,-0.19812 -0.23028,-0.61382 -0.14872,-0.938772 0.08558,-0.340988 0.03472,-0.620532 -0.12256,-0.672948 -0.43272,-0.14424 -0.326424,-7.099536 0.11952,-7.821096 0.107536,-0.17399 0.06344,-0.4644 -0.100384,-0.66181 -0.17744,-0.21378 -0.241536,-0.72741 -0.16348,-1.30938 0.07064,-0.52671 0.02424,-1.02205 -0.102936,-1.10068 -0.127224,-0.07863 -0.208864,-0.37567 -0.18144,-0.66006 0.02744,-0.28439 -0.0372,-0.72036 -0.143664,-0.96885 -0.11568,-0.27003 -0.07832,-0.63645 0.09298,-0.91074 0.236,-0.37791 0.19728,-0.5843 -0.21944,-1.1695297 -0.6296,-0.88419 -0.53464,-1.56997 0.20616,-1.48936 0.703,0.0765 0.354896,-0.65323 -0.67472,-1.41445 -0.71604,-0.5294 -1.330184,-1.77704 -0.980944,-1.99287 0.106264,-0.06568 0.95856,0.63393 1.89404,1.55469 0.93548,0.92075 1.770344,1.67402 1.855264,1.67402 0.223536,0 -1.05832,-2.17352 -1.69852,-2.87998 -0.79584,-0.8782179 -1.550824,-2.2120171 -1.55176,-2.7417971 -0.0016,-0.67932 0.89196,0.2111 2.69736,2.6887671 2.3432,3.21575 1.939256,1.97686 -0.878024,-2.6928671 -0.8212,-1.36116078 -1.109816,-2.23660078 -0.642,-1.94746078 0.12004,0.074176 1.168744,1.55132078 2.330464,3.28262078 2.431896,3.6242071 2.822776,3.6790171 1.070616,0.15008 -0.95408,-1.92152 -1.480776,-3.67228078 -1.216496,-3.69228077782 z"
     id="path4243"
     inkscape:connector-curvature="0" />
  <path
     sodipodi:nodetypes="csscssssscssccccccssssssssssssssssssssscsccsssssssssssssssssscccssscssscssssssccsssssssssc"
     inkscape:connector-curvature="0"
     id="path4200"
     d="m 2.8081066,27.992738 c -0.0096,0.0017 -0.01445,0.0064 -0.01445,0.014 0,0.121419 0.431976,0.506588 0.960178,0.856137 0.528206,0.349548 0.924361,0.671741 0.880402,0.715704 -0.04396,0.04396 -0.861749,-0.24873 -1.81772,-0.650386 -2.42953701,-1.020783 -2.42952901,-0.660409 0,0.491289 2.283267,1.082361 2.249334,1.145232 -0.261738,0.487087 -0.985375,-0.258263 -1.95283501,-0.467235 -2.14990901,-0.464228 -0.726601,0.01109 0.88273101,0.659244 2.62766501,1.058159 0.985374,0.225271 1.899086,0.451956 2.030469,0.503886 0.275724,0.108976 -2.59136,-0.09641 -4.18037701,-0.299531 -0.735446,-0.09401 -0.999508,-0.0597 -0.836076,0.108708 0.131383,0.135385 1.36758101,0.404364 2.74710601,0.59813 l 2.508226,0.352719 -2.701381,0.0266 c -3.722196,0.03673 -3.28583401,0.496071 0.505748,0.532344 l 2.912269,0.02752 -2.567945,0.358319 c -1.412371,0.197041 -2.56794701,0.441519 -2.56794701,0.543073 0,0.101553 0.94058601,0.14375 2.09018901,0.09378 2.053909,-0.08928 2.071532,-0.08543 1.015234,0.225348 -1.828622,0.538017 -1.852406,0.643294 -0.11944,0.528147 1.537132,-0.102133 1.623931,-0.08388 1.074955,0.228148 -0.667081,0.379157 -0.652223,0.39884 0.358318,0.476358 1.167314,0.08954 2.508227,0.898866 2.508227,1.513987 0,0.110503 0.564351,0.505286 1.254114,0.877132 0.689762,0.371848 1.3078604,0.752962 1.3735524,0.846806 0.120154,0.171647 0.522288,0.613839 1.230834,0.837795 1.163502,0.367759 0.865726,0.329214 1.227515,0.601545 0.408975,0.30785 0.891446,0.01921 1.029808,0.403504 0.170311,0.47304 0.560659,0.158113 0.759643,0.494622 0.179321,0.303252 0.471655,0.138447 0.627241,0.314466 0.17279,0.195481 0.435577,0.04002 0.548895,0.205607 0.246953,0.360843 0.425222,0.03463 0.696244,0.279098 0.524866,0.473457 1.424371,0.525771 1.795478,0.585112 1.196871,0.191388 0.98974,0.462328 -0.505285,0.660652 -0.659865,0.08753 -1.199525,0.280067 -1.199525,0.427833 0,0.294926 1.617536,2.544172 2.602471,3.618639 0.896406,0.977892 2.303655,1.626389 3.830925,1.765931 0.731473,0.06683 1.374796,0.162173 1.429539,0.211819 0.05474,0.04964 0.507162,0.09051 1.004973,0.09051 l 0.90466,0 -0.321461,-0.895795 C 25.92275,47.150625 25.550952,46.179165 25.273918,45.484541 24.644215,43.90564 24.6444,43.906514 25.375163,44.385324 c 0.332557,0.217903 0.323619,0.350803 0.757227,0.243544 0,0 0.281497,0.264048 0.654585,0.176359 0.326493,-0.07674 0.160159,0.350971 0.668833,0.28195 0.306162,-0.04153 0.618948,0.305338 0.903006,0.215872 0.363375,-0.11445 0.615438,0.270436 0.921148,0.319806 0.305709,0.04937 0.758306,-0.05028 0.963297,-0.01493 0.409985,0.07073 0.668719,0.122097 0.976968,0.18874 0.164228,0.03551 0.501645,0.220356 0.912967,0.264241 0.411317,0.04389 0.904918,-0.114855 1.35638,-0.0221 0.756511,0.155436 2.20963,0.166658 2.866546,0.232345 0.656916,0.06568 1.766228,-0.007 2.465302,-0.161895 1.07576,-0.238267 1.252403,-0.352293 1.150538,-0.741831 -0.07196,-0.275208 0.217009,-0.06613 0.718501,0.519748 0.867747,1.013769 1.609303,1.317428 1.371688,0.561737 -0.0787,-0.250308 0.06814,-0.165474 0.365782,0.211354 0.573544,0.726124 1.691747,1.515548 1.691747,1.194393 0,-0.119669 -0.389349,-0.794085 -0.865001,-1.498591 l -0.864536,-1.280709 1.646956,1.612432 c 0.905946,0.886838 1.725279,1.612431 1.820516,1.612431 0.452709,0 0.0328,-0.626328 -1.558776,-2.3244 -1.069591,-1.141177 -1.412151,-1.610799 -0.895795,-1.228452 3.849009,2.850081 5.455586,3.58223 2.718184,1.238715 -0.221733,-0.121394 -2.371973,-1.644344 -2.709174,-1.960139 -0.337199,-0.315792 5.544321,2.440407 5.11537,1.809538 -0.22927,-0.337194 -4.510975,-2.294452 -4.448509,-2.451962 0.06247,-0.157509 0.236714,-0.06772 0.814321,0.127464 1.216867,0.387908 2.669284,0.80666 3.227661,0.93032 1.845521,0.408712 1.055234,-0.14853 -1.433272,-1.010569 -1.346677,-0.466501 -2.018523,-0.770762 -1.492991,-0.676512 1.329891,0.2385 3.431795,0.179379 3.71569,-0.10451 0.156261,-0.156261 -0.231531,-0.24822 -1.142139,-0.270604 -0.758444,-0.01863 -1.809138,-0.112165 -2.334669,-0.20762 l -0.955518,-0.173561 1.278847,-0.170294 c 2.47548,-0.329336 1.644034,-0.574336 -1.947894,-0.574336 -2.840674,0 -4.150551,-0.113273 -6.019557,-0.520679 C 36.475559,40.44623 33.654903,40.053264 31.521159,39.859685 27.974988,39.537963 27.579166,39.45533 26.915279,38.896704 26.042617,38.162407 24.971989,37.839337 22.740028,37.636056 20.858674,37.464705 20.166766,37.162948 16.756395,35.026585 15.436229,34.199591 13.017581,32.972742 11.381623,32.300474 9.7456656,31.628208 7.1442306,30.337422 5.6004766,29.432065 4.1532086,28.58329 2.9525326,27.966461 2.8081156,27.992724 Z"
     style="fill:#b3b3b3" />
</svg>
